# Archivo generado
v 1 0 0.25
v 1 0 -0.25
v 0.9510565162951535 0.3090169943749474 0.25
v 0.9510565162951535 0.3090169943749474 -0.25
v 0.8090169943749475 0.5877852522924731 0.25
v 0.8090169943749475 0.5877852522924731 -0.25
v 0.5877852522924731 0.8090169943749475 0.25
v 0.5877852522924731 0.8090169943749475 -0.25
v 0.30901699437494745 0.9510565162951535 0.25
v 0.30901699437494745 0.9510565162951535 -0.25
v 6.123233995736766e-17 1 0.25
v 6.123233995736766e-17 1 -0.25
v -0.30901699437494734 0.9510565162951536 0.25
v -0.30901699437494734 0.9510565162951536 -0.25
v -0.587785252292473 0.8090169943749475 0.25
v -0.587785252292473 0.8090169943749475 -0.25
v -0.8090169943749473 0.5877852522924732 0.25
v -0.8090169943749473 0.5877852522924732 -0.25
v -0.9510565162951535 0.3090169943749475 0.25
v -0.9510565162951535 0.3090169943749475 -0.25
v -1 1.2246467991473532e-16 0.25
v -1 1.2246467991473532e-16 -0.25
v -0.9510565162951536 -0.3090169943749473 0.25
v -0.9510565162951536 -0.3090169943749473 -0.25
v -0.8090169943749475 -0.587785252292473 0.25
v -0.8090169943749475 -0.587785252292473 -0.25
v -0.5877852522924732 -0.8090169943749473 0.25
v -0.5877852522924732 -0.8090169943749473 -0.25
v -0.30901699437494756 -0.9510565162951535 0.25
v -0.30901699437494756 -0.9510565162951535 -0.25
v -1.8369701987210297e-16 -1 0.25
v -1.8369701987210297e-16 -1 -0.25
v 0.30901699437494723 -0.9510565162951536 0.25
v 0.30901699437494723 -0.9510565162951536 -0.25
v 0.5877852522924729 -0.8090169943749476 0.25
v 0.5877852522924729 -0.8090169943749476 -0.25
v 0.8090169943749473 -0.5877852522924734 0.25
v 0.8090169943749473 -0.5877852522924734 -0.25
v 0.9510565162951535 -0.3090169943749476 0.25
v 0.9510565162951535 -0.3090169943749476 -0.25
v 0 0 0.25
v 0 0 -0.25
vn 0.9876883405951377 0.156434465040231 0
vn 0 0 1
vn 0 0 -1
vn 0.891006524188368 0.4539904997395466 0
vn 0 0 1
vn 0 0 -1
vn 0.7071067811865476 0.7071067811865476 0
vn 0 0 1
vn 0 0 -1
vn 0.45399049973954664 0.891006524188368 0
vn 0 0 1
vn 0 0 -1
vn 0.156434465040231 0.9876883405951377 0
vn 0 0 1
vn 0 0 -1
vn -0.15643446504023065 0.9876883405951377 0
vn 0 0 1
vn 0 0 -1
vn -0.4539904997395469 0.8910065241883678 0
vn 0 0 1
vn 0 0 -1
vn -0.7071067811865474 0.7071067811865477 0
vn 0 0 1
vn 0 0 -1
vn -0.8910065241883678 0.45399049973954686 0
vn 0 0 1
vn 0 0 -1
vn -0.9876883405951377 0.156434465040231 0
vn 0 0 1
vn 0 0 -1
vn -0.9876883405951377 -0.15643446504023065 0
vn 0 0 1
vn 0 0 -1
vn -0.8910065241883678 -0.45399049973954686 0
vn 0 0 1
vn 0 0 -1
vn -0.7071067811865477 -0.7071067811865474 0
vn 0 0 1
vn 0 0 -1
vn -0.4539904997395469 -0.8910065241883678 0
vn 0 0 1
vn 0 0 -1
vn -0.156434465040231 -0.9876883405951377 0
vn 0 0 1
vn 0 0 -1
vn 0.15643446504023065 -0.9876883405951377 0
vn 0 0 1
vn 0 0 -1
vn 0.45399049973954664 -0.891006524188368 0
vn 0 0 1
vn 0 0 -1
vn 0.7071067811865472 -0.7071067811865479 0
vn 0 0 1
vn 0 0 -1
vn 0.8910065241883678 -0.45399049973954686 0
vn 0 0 1
vn 0 0 -1
vn 0.9876883405951377 -0.1564344650402309 0
vn 0 0 1
vn 0 0 -1
f 2//1 4//1 3//1 1//1
f 41//2 1//2 3//2
f 42//3 4//3 2//3
f 4//4 6//4 5//4 3//4
f 41//5 3//5 5//5
f 42//6 6//6 4//6
f 6//7 8//7 7//7 5//7
f 41//8 5//8 7//8
f 42//9 8//9 6//9
f 8//10 10//10 9//10 7//10
f 41//11 7//11 9//11
f 42//12 10//12 8//12
f 10//13 12//13 11//13 9//13
f 41//14 9//14 11//14
f 42//15 12//15 10//15
f 12//16 14//16 13//16 11//16
f 41//17 11//17 13//17
f 42//18 14//18 12//18
f 14//19 16//19 15//19 13//19
f 41//20 13//20 15//20
f 42//21 16//21 14//21
f 16//22 18//22 17//22 15//22
f 41//23 15//23 17//23
f 42//24 18//24 16//24
f 18//25 20//25 19//25 17//25
f 41//26 17//26 19//26
f 42//27 20//27 18//27
f 20//28 22//28 21//28 19//28
f 41//29 19//29 21//29
f 42//30 22//30 20//30
f 22//31 24//31 23//31 21//31
f 41//32 21//32 23//32
f 42//33 24//33 22//33
f 24//34 26//34 25//34 23//34
f 41//35 23//35 25//35
f 42//36 26//36 24//36
f 26//37 28//37 27//37 25//37
f 41//38 25//38 27//38
f 42//39 28//39 26//39
f 28//40 30//40 29//40 27//40
f 41//41 27//41 29//41
f 42//42 30//42 28//42
f 30//43 32//43 31//43 29//43
f 41//44 29//44 31//44
f 42//45 32//45 30//45
f 32//46 34//46 33//46 31//46
f 41//47 31//47 33//47
f 42//48 34//48 32//48
f 34//49 36//49 35//49 33//49
f 41//50 33//50 35//50
f 42//51 36//51 34//51
f 36//52 38//52 37//52 35//52
f 41//53 35//53 37//53
f 42//54 38//54 36//54
f 38//55 40//55 39//55 37//55
f 41//56 37//56 39//56
f 42//57 40//57 38//57
f 40//58 2//58 1//58 39//58
f 41//59 39//59 1//59
f 42//60 2//60 40//60
